<svg aria-hidden="true" style="position: absolute; width: 0; height: 0; overflow: hidden;" version="1.1" xmlns="http://www.w3.org/2000/svg" xmlns:xlink="http://www.w3.org/1999/xlink">
    <defs>
        <symbol id="icon-menu" viewBox="0 0 16 16">
            <path fill="none" stroke="#fbfbfb" style="stroke: var(--color1, #fbfbfb)" stroke-linejoin="round" stroke-linecap="round" stroke-miterlimit="4" stroke-width="1.5" d="M2.667 4h10.667M2.667 8h5.333M2.667 12h10.667"></path>
        </symbol>
        <symbol id="icon-logo" viewBox="0 0 168 16">
            <path fill="#fbfbfb" style="fill: var(--color1, #fbfbfb)" d="M14.541 0.157h-2.005c-0.619 0-1.12 0.491-1.12 1.098v1.965c0 0.606 0.502 1.098 1.12 1.098h2.005c0.619 0 1.12-0.491 1.12-1.098v-1.965c0-0.606-0.502-1.098-1.12-1.098z"></path>
            <path fill="#fbfbfb" style="fill: var(--color1, #fbfbfb)" d="M3.365 11.52h-2.159c-0.666 0-1.206 0.492-1.206 1.098v1.965c0 0.606 0.54 1.098 1.206 1.098h2.159c0.666 0 1.206-0.491 1.206-1.098v-1.965c0-0.606-0.54-1.098-1.206-1.098z"></path>
            <path fill="#fbfbfb" style="fill: var(--color1, #fbfbfb)" d="M3.125 5.791h-2.005c-0.619 0-1.12 0.491-1.12 1.098v1.965c0 0.606 0.502 1.098 1.12 1.098h2.005c0.619 0 1.12-0.491 1.12-1.098v-1.965c0-0.606-0.501-1.098-1.12-1.098z"></path>
            <path fill="#fbfbfb" style="fill: var(--color1, #fbfbfb)" d="M8.883 11.489h-2.005c-0.619 0-1.12 0.491-1.12 1.098l-0 1.965c0 0.606 0.502 1.098 1.12 1.098h2.005c0.619 0 1.12-0.492 1.12-1.098v-1.965c0-0.606-0.502-1.098-1.12-1.098z"></path>
            <path fill="#fbfbfb" style="fill: var(--color1, #fbfbfb)" d="M3.125 0.043h-2.005c-0.619 0-1.12 0.491-1.12 1.098v1.965c0 0.606 0.502 1.098 1.12 1.098h2.005c0.619 0 1.12-0.491 1.12-1.098v-1.965c0-0.606-0.501-1.098-1.12-1.098z"></path>
            <path fill="#fbfbfb" style="fill: var(--color1, #fbfbfb)" d="M9.038 5.849h-2.005c-0.619 0-1.12 0.491-1.12 1.098v1.965c0 0.606 0.502 1.098 1.12 1.098h2.005c0.619 0 1.12-0.491 1.12-1.098v-1.965c0-0.606-0.501-1.098-1.12-1.098z"></path>
            <path fill="#fbfbfb" style="fill: var(--color1, #fbfbfb)" d="M14.667 11.489h-2.005c-0.618 0-1.12 0.491-1.12 1.098v1.965c0 0.606 0.502 1.098 1.12 1.098h2.005c0.619 0 1.12-0.492 1.12-1.098v-1.965c0-0.606-0.502-1.098-1.12-1.098z"></path>
            <path fill="#fbfbfb" style="fill: var(--color1, #fbfbfb)" d="M8.795 0.112h-2.005c-0.619 0-1.12 0.491-1.12 1.098v1.965c0 0.606 0.502 1.098 1.12 1.098h2.005c0.619 0 1.12-0.492 1.12-1.098v-1.964c0-0.606-0.501-1.098-1.12-1.098z"></path>
            <path fill="#fbfbfb" style="fill: var(--color1, #fbfbfb)" d="M14.522 5.963h-2.005c-0.619 0-1.12 0.491-1.12 1.098v1.965c0 0.606 0.502 1.098 1.12 1.098h2.005c0.619 0 1.12-0.491 1.12-1.098v-1.965c0-0.606-0.502-1.098-1.12-1.098z"></path>
            <path fill="#fbfbfb" style="fill: var(--color1, #fbfbfb)" d="M26.301 14c-3.788 0-6.301-2.352-6.301-6.016 0-3.584 2.477-5.984 6.211-5.984 3.142 0 5.349 1.648 5.673 4.128h-2.603c-0.251-1.424-1.454-2.224-3.070-2.224-2.262 0-3.608 1.632-3.608 4.080 0 2.688 1.508 4.112 3.698 4.112 1.903 0 3.123-0.96 3.249-2.4v-0.16h-3.501v-1.792h5.924v1.472c-0.108 2.864-2.37 4.784-5.673 4.784z"></path>
            <path fill="#fbfbfb" style="fill: var(--color1, #fbfbfb)" d="M33.543 13.84v-11.68h6.301c3.213 0 4.488 1.392 4.488 3.408 0 1.808-1.436 2.672-3.106 2.88v0.048c1.077 0.24 1.562 0.768 2.011 1.808 0.574 1.312 0.664 2.88 1.4 3.44v0.096h-2.872c-0.61-0.544-0.754-2.256-1.077-3.296-0.323-1.072-1.023-1.2-2.334-1.2h-2.298v4.496h-2.513zM36.056 7.488h3.519c1.472 0 2.154-0.768 2.154-1.76 0-1.088-0.844-1.712-2.154-1.712h-3.519v3.472z"></path>
            <path fill="#fbfbfb" style="fill: var(--color1, #fbfbfb)" d="M46.001 13.84v-11.68h8.958v1.856h-6.445v2.784h5.816v1.856h-5.816v3.28h6.534v1.904h-9.047z"></path>
            <path fill="#fbfbfb" style="fill: var(--color1, #fbfbfb)" d="M56.794 13.84v-11.68h8.958v1.856h-6.445v2.784h5.816v1.856h-5.816v3.28h6.534v1.904h-9.047z"></path>
            <path fill="#fbfbfb" style="fill: var(--color1, #fbfbfb)" d="M67.586 13.84v-11.68h3.052l4.344 6.448c1.328 1.952 1.49 2.592 1.49 2.592h0.054l-0.036-9.040h2.513v11.68h-3.070l-4.506-6.64c-1.023-1.504-1.293-2.416-1.293-2.416h-0.036v9.056h-2.513z"></path>
            <path fill="#fbfbfb" style="fill: var(--color1, #fbfbfb)" d="M80.894 13.84v-2.368h2.621v2.368h-2.621z"></path>
            <path fill="#fbfbfb" style="fill: var(--color1, #fbfbfb)" d="M85.402 13.84v-11.68h2.513v4.672h6.014v-4.672h2.513v11.68h-2.513v-5.152h-6.014v5.152h-2.513z"></path>
            <path fill="#fbfbfb" style="fill: var(--color1, #fbfbfb)" d="M97.517 13.84l5.026-11.68h2.729l5.098 11.68h-2.693l-1.059-2.688h-5.439l-1.059 2.688h-2.603zM101.897 9.296h4.003l-1.167-2.88c-0.808-2.128-0.826-2.512-0.826-2.512h-0.036c0 0 0 0.384-0.807 2.512l-1.167 2.88z"></path>
            <path fill="#fbfbfb" style="fill: var(--color1, #fbfbfb)" d="M111.44 13.84v-11.68h6.301c3.214 0 4.488 1.392 4.488 3.408 0 1.808-1.436 2.672-3.105 2.88v0.048c1.077 0.24 1.561 0.768 2.010 1.808 0.575 1.312 0.664 2.88 1.4 3.44v0.096h-2.872c-0.61-0.544-0.754-2.256-1.077-3.296-0.323-1.072-1.023-1.2-2.334-1.2h-2.297v4.496h-2.514zM113.954 7.488h3.518c1.472 0 2.154-0.768 2.154-1.76 0-1.088-0.844-1.712-2.154-1.712h-3.518v3.472z"></path>
            <path fill="#fbfbfb" style="fill: var(--color1, #fbfbfb)" d="M126.563 13.84l-4.811-11.68h2.693c0 0 2.603 6.544 2.872 7.344 0.431 1.28 0.628 1.936 0.628 1.936h0.036c-0.018 0 0.18-0.656 0.628-1.936 0.288-0.8 2.783-7.344 2.783-7.344h2.603l-4.632 11.68h-2.8z"></path>
            <path fill="#fbfbfb" style="fill: var(--color1, #fbfbfb)" d="M135.024 13.84v-11.68h8.958v1.856h-6.445v2.784h5.817v1.856h-5.817v3.28h6.535v1.904h-9.048z"></path>
            <path fill="#fbfbfb" style="fill: var(--color1, #fbfbfb)" d="M150.311 14c-3.339 0-5.35-1.616-5.35-4.016h2.873c-0.036 1.36 0.969 2.112 2.477 2.112 1.598 0 2.351-0.56 2.351-1.392s-0.646-1.184-2.944-1.744c-2.1-0.512-4.398-1.12-4.398-3.52 0-1.904 1.867-3.44 4.811-3.44 3.034 0 4.973 1.52 4.973 3.664h-2.783c-0.018-1.136-0.879-1.76-2.19-1.76-1.274 0-2.118 0.576-2.118 1.344 0 0.912 0.7 1.2 2.531 1.664 2.711 0.672 4.901 0.944 4.901 3.552 0 2.096-2.136 3.536-5.134 3.536z"></path>
            <path fill="#fbfbfb" style="fill: var(--color1, #fbfbfb)" d="M159.537 13.84v-9.776h-3.967v-1.904h10.43v1.904h-3.949v9.776h-2.514z"></path>
        </symbol>
        <symbol id="icon-close" viewBox="0 0 16 16">
            <path fill="none" stroke="#fbfbfb" style="stroke: var(--color1, #fbfbfb)" stroke-linejoin="round" stroke-linecap="round" stroke-miterlimit="4" stroke-width="1.6" d="M12 4l-8 8"></path>
            <path fill="none" stroke="#fbfbfb" style="stroke: var(--color1, #fbfbfb)" stroke-linejoin="round" stroke-linecap="round" stroke-miterlimit="4" stroke-width="1.6" d="M4 4l8 8"></path>
        </symbol>
        <symbol id="icon-time" viewBox="0 0 32 32">
            <path d="M22.781 16c4.305-2.729 7.219-7.975 7.219-14 0-0.677-0.037-1.345-0.109-2h-27.783c-0.072 0.655-0.109 1.323-0.109 2 0 6.025 2.914 11.271 7.219 14-4.305 2.729-7.219 7.975-7.219 14 0 0.677 0.037 1.345 0.109 2h27.783c0.072-0.655 0.109-1.323 0.109-2 0-6.025-2.914-11.271-7.219-14zM5 30c0-5.841 2.505-10.794 7-12.428v-3.143c-4.495-1.634-7-6.587-7-12.428v0h22c0 5.841-2.505 10.794-7 12.428v3.143c4.495 1.634 7 6.587 7 12.428h-22zM19.363 20.925c-2.239-1.27-2.363-2.918-2.363-3.918v-2.007c0-1 0.119-2.654 2.367-3.927 1.203-0.699 2.244-1.761 3.033-3.073h-12.799c0.79 1.313 1.832 2.376 3.036 3.075 2.239 1.27 2.363 2.918 2.363 3.918v2.007c0 1-0.119 2.654-2.367 3.927-2.269 1.318-3.961 3.928-4.472 7.073h15.677c-0.511-3.147-2.204-5.758-4.475-7.075z"></path>
        </symbol>
        <symbol id="icon-price" viewBox="0 0 40 32">
            <path d="M38.5 0h-12c-0.825 0-1.977 0.477-2.561 1.061l-14.879 14.879c-0.583 0.583-0.583 1.538 0 2.121l12.879 12.879c0.583 0.583 1.538 0.583 2.121 0l14.879-14.879c0.583-0.583 1.061-1.736 1.061-2.561v-12c0-0.825-0.675-1.5-1.5-1.5zM31 12c-1.657 0-3-1.343-3-3s1.343-3 3-3 3 1.343 3 3-1.343 3-3 3z"></path>
            <path d="M4 17l17-17h-2.5c-0.825 0-1.977 0.477-2.561 1.061l-14.879 14.879c-0.583 0.583-0.583 1.538 0 2.121l12.879 12.879c0.583 0.583 1.538 0.583 2.121 0l0.939-0.939-13-13z"></path>
        </symbol>
        <symbol id="icon-cart" viewBox="0 0 32 32">
            <path d="M12 29c0 1.657-1.343 3-3 3s-3-1.343-3-3c0-1.657 1.343-3 3-3s3 1.343 3 3z"></path>
            <path d="M32 29c0 1.657-1.343 3-3 3s-3-1.343-3-3c0-1.657 1.343-3 3-3s3 1.343 3 3z"></path>
            <path d="M32 16v-12h-24c0-1.105-0.895-2-2-2h-6v2h4l1.502 12.877c-0.915 0.733-1.502 1.859-1.502 3.123 0 2.209 1.791 4 4 4h24v-2h-24c-1.105 0-2-0.895-2-2 0-0.007 0-0.014 0-0.020l26-3.98z"></path>
        </symbol>
    </defs>
</svg>