<svg aria-hidden="true" style="position: absolute; width: 0; height: 0; overflow: hidden;" version="1.1" xmlns="http://www.w3.org/2000/svg" xmlns:xlink="http://www.w3.org/1999/xlink">
    <defs>
        <symbol id="icon-menu" viewBox="0 0 16 16">
            <path fill="none" stroke="#fbfbfb" style="stroke: var(--color1, #fbfbfb)" stroke-linejoin="round" stroke-linecap="round" stroke-miterlimit="4" stroke-width="1.5" d="M2.667 4h10.667M2.667 8h5.333M2.667 12h10.667"></path>
        </symbol>
        <symbol id="icon-logo" viewBox="0 0 168 16">
            <path fill="#fbfbfb" style="fill: var(--color1, #fbfbfb)" d="M14.541 0.157h-2.005c-0.619 0-1.12 0.491-1.12 1.098v1.965c0 0.606 0.502 1.098 1.12 1.098h2.005c0.619 0 1.12-0.491 1.12-1.098v-1.965c0-0.606-0.502-1.098-1.12-1.098z"></path>
            <path fill="#fbfbfb" style="fill: var(--color1, #fbfbfb)" d="M3.365 11.52h-2.159c-0.666 0-1.206 0.492-1.206 1.098v1.965c0 0.606 0.54 1.098 1.206 1.098h2.159c0.666 0 1.206-0.491 1.206-1.098v-1.965c0-0.606-0.54-1.098-1.206-1.098z"></path>
            <path fill="#fbfbfb" style="fill: var(--color1, #fbfbfb)" d="M3.125 5.791h-2.005c-0.619 0-1.12 0.491-1.12 1.098v1.965c0 0.606 0.502 1.098 1.12 1.098h2.005c0.619 0 1.12-0.491 1.12-1.098v-1.965c0-0.606-0.501-1.098-1.12-1.098z"></path>
            <path fill="#fbfbfb" style="fill: var(--color1, #fbfbfb)" d="M8.883 11.489h-2.005c-0.619 0-1.12 0.491-1.12 1.098l-0 1.965c0 0.606 0.502 1.098 1.12 1.098h2.005c0.619 0 1.12-0.492 1.12-1.098v-1.965c0-0.606-0.502-1.098-1.12-1.098z"></path>
            <path fill="#fbfbfb" style="fill: var(--color1, #fbfbfb)" d="M3.125 0.043h-2.005c-0.619 0-1.12 0.491-1.12 1.098v1.965c0 0.606 0.502 1.098 1.12 1.098h2.005c0.619 0 1.12-0.491 1.12-1.098v-1.965c0-0.606-0.501-1.098-1.12-1.098z"></path>
            <path fill="#fbfbfb" style="fill: var(--color1, #fbfbfb)" d="M9.038 5.849h-2.005c-0.619 0-1.12 0.491-1.12 1.098v1.965c0 0.606 0.502 1.098 1.12 1.098h2.005c0.619 0 1.12-0.491 1.12-1.098v-1.965c0-0.606-0.501-1.098-1.12-1.098z"></path>
            <path fill="#fbfbfb" style="fill: var(--color1, #fbfbfb)" d="M14.667 11.489h-2.005c-0.618 0-1.12 0.491-1.12 1.098v1.965c0 0.606 0.502 1.098 1.12 1.098h2.005c0.619 0 1.12-0.492 1.12-1.098v-1.965c0-0.606-0.502-1.098-1.12-1.098z"></path>
            <path fill="#fbfbfb" style="fill: var(--color1, #fbfbfb)" d="M8.795 0.112h-2.005c-0.619 0-1.12 0.491-1.12 1.098v1.965c0 0.606 0.502 1.098 1.12 1.098h2.005c0.619 0 1.12-0.492 1.12-1.098v-1.964c0-0.606-0.501-1.098-1.12-1.098z"></path>
            <path fill="#fbfbfb" style="fill: var(--color1, #fbfbfb)" d="M14.522 5.963h-2.005c-0.619 0-1.12 0.491-1.12 1.098v1.965c0 0.606 0.502 1.098 1.12 1.098h2.005c0.619 0 1.12-0.491 1.12-1.098v-1.965c0-0.606-0.502-1.098-1.12-1.098z"></path>
            <path fill="#fbfbfb" style="fill: var(--color1, #fbfbfb)" d="M26.301 14c-3.788 0-6.301-2.352-6.301-6.016 0-3.584 2.477-5.984 6.211-5.984 3.142 0 5.349 1.648 5.673 4.128h-2.603c-0.251-1.424-1.454-2.224-3.070-2.224-2.262 0-3.608 1.632-3.608 4.080 0 2.688 1.508 4.112 3.698 4.112 1.903 0 3.123-0.96 3.249-2.4v-0.16h-3.501v-1.792h5.924v1.472c-0.108 2.864-2.37 4.784-5.673 4.784z"></path>
            <path fill="#fbfbfb" style="fill: var(--color1, #fbfbfb)" d="M33.543 13.84v-11.68h6.301c3.213 0 4.488 1.392 4.488 3.408 0 1.808-1.436 2.672-3.106 2.88v0.048c1.077 0.24 1.562 0.768 2.011 1.808 0.574 1.312 0.664 2.88 1.4 3.44v0.096h-2.872c-0.61-0.544-0.754-2.256-1.077-3.296-0.323-1.072-1.023-1.2-2.334-1.2h-2.298v4.496h-2.513zM36.056 7.488h3.519c1.472 0 2.154-0.768 2.154-1.76 0-1.088-0.844-1.712-2.154-1.712h-3.519v3.472z"></path>
            <path fill="#fbfbfb" style="fill: var(--color1, #fbfbfb)" d="M46.001 13.84v-11.68h8.958v1.856h-6.445v2.784h5.816v1.856h-5.816v3.28h6.534v1.904h-9.047z"></path>
            <path fill="#fbfbfb" style="fill: var(--color1, #fbfbfb)" d="M56.794 13.84v-11.68h8.958v1.856h-6.445v2.784h5.816v1.856h-5.816v3.28h6.534v1.904h-9.047z"></path>
            <path fill="#fbfbfb" style="fill: var(--color1, #fbfbfb)" d="M67.586 13.84v-11.68h3.052l4.344 6.448c1.328 1.952 1.49 2.592 1.49 2.592h0.054l-0.036-9.040h2.513v11.68h-3.070l-4.506-6.64c-1.023-1.504-1.293-2.416-1.293-2.416h-0.036v9.056h-2.513z"></path>
            <path fill="#fbfbfb" style="fill: var(--color1, #fbfbfb)" d="M80.894 13.84v-2.368h2.621v2.368h-2.621z"></path>
            <path fill="#fbfbfb" style="fill: var(--color1, #fbfbfb)" d="M85.402 13.84v-11.68h2.513v4.672h6.014v-4.672h2.513v11.68h-2.513v-5.152h-6.014v5.152h-2.513z"></path>
            <path fill="#fbfbfb" style="fill: var(--color1, #fbfbfb)" d="M97.517 13.84l5.026-11.68h2.729l5.098 11.68h-2.693l-1.059-2.688h-5.439l-1.059 2.688h-2.603zM101.897 9.296h4.003l-1.167-2.88c-0.808-2.128-0.826-2.512-0.826-2.512h-0.036c0 0 0 0.384-0.807 2.512l-1.167 2.88z"></path>
            <path fill="#fbfbfb" style="fill: var(--color1, #fbfbfb)" d="M111.44 13.84v-11.68h6.301c3.214 0 4.488 1.392 4.488 3.408 0 1.808-1.436 2.672-3.105 2.88v0.048c1.077 0.24 1.561 0.768 2.010 1.808 0.575 1.312 0.664 2.88 1.4 3.44v0.096h-2.872c-0.61-0.544-0.754-2.256-1.077-3.296-0.323-1.072-1.023-1.2-2.334-1.2h-2.297v4.496h-2.514zM113.954 7.488h3.518c1.472 0 2.154-0.768 2.154-1.76 0-1.088-0.844-1.712-2.154-1.712h-3.518v3.472z"></path>
            <path fill="#fbfbfb" style="fill: var(--color1, #fbfbfb)" d="M126.563 13.84l-4.811-11.68h2.693c0 0 2.603 6.544 2.872 7.344 0.431 1.28 0.628 1.936 0.628 1.936h0.036c-0.018 0 0.18-0.656 0.628-1.936 0.288-0.8 2.783-7.344 2.783-7.344h2.603l-4.632 11.68h-2.8z"></path>
            <path fill="#fbfbfb" style="fill: var(--color1, #fbfbfb)" d="M135.024 13.84v-11.68h8.958v1.856h-6.445v2.784h5.817v1.856h-5.817v3.28h6.535v1.904h-9.048z"></path>
            <path fill="#fbfbfb" style="fill: var(--color1, #fbfbfb)" d="M150.311 14c-3.339 0-5.35-1.616-5.35-4.016h2.873c-0.036 1.36 0.969 2.112 2.477 2.112 1.598 0 2.351-0.56 2.351-1.392s-0.646-1.184-2.944-1.744c-2.1-0.512-4.398-1.12-4.398-3.52 0-1.904 1.867-3.44 4.811-3.44 3.034 0 4.973 1.52 4.973 3.664h-2.783c-0.018-1.136-0.879-1.76-2.19-1.76-1.274 0-2.118 0.576-2.118 1.344 0 0.912 0.7 1.2 2.531 1.664 2.711 0.672 4.901 0.944 4.901 3.552 0 2.096-2.136 3.536-5.134 3.536z"></path>
            <path fill="#fbfbfb" style="fill: var(--color1, #fbfbfb)" d="M159.537 13.84v-9.776h-3.967v-1.904h10.43v1.904h-3.949v9.776h-2.514z"></path>
        </symbol>
        <symbol id="icon-close" viewBox="0 0 32 32">
<path fill="none" stroke="#fbfbfb" style="stroke: var(--color1, #fbfbfb)" stroke-linejoin="round" stroke-linecap="round" stroke-miterlimit="4" stroke-width="3.2" d="M24 8l-16 16"></path>
<path fill="none" stroke="#fbfbfb" style="stroke: var(--color1, #fbfbfb)" stroke-linejoin="round" stroke-linecap="round" stroke-miterlimit="4" stroke-width="3.2" d="M8 8l16 16"></path>
</symbol>
        <symbol id="icon-banknote" viewBox="0 0 32 32">
            <path d="M31.415 10.586l-10-10c-0.496-0.496-1.215-0.695-1.896-0.527-0.359 0.088-0.68 0.273-0.934 0.527-0.227 0.227-0.398 0.508-0.496 0.822-0.453 1.469-1.236 2.746-2.395 3.904-1.548 1.547-3.564 2.719-5.697 3.958-2.264 1.312-4.603 2.672-6.52 4.588-1.629 1.631-2.738 3.445-3.388 5.551-0.219 0.711-0.028 1.48 0.496 2.006l10 10c0.496 0.496 1.215 0.695 1.896 0.527 0.359-0.090 0.68-0.273 0.934-0.527 0.227-0.227 0.398-0.508 0.496-0.824 0.454-1.469 1.237-2.746 2.397-3.904 1.547-1.547 3.562-2.717 5.697-3.955 2.262-1.314 4.602-2.674 6.518-4.59 1.629-1.629 2.738-3.445 3.389-5.551 0.218-0.71 0.026-1.482-0.497-2.005zM12 30c-3.312-3.312-6.688-6.689-10-10 2.842-9.201 15.16-8.799 18-18 3.312 3.311 6.689 6.688 10.002 10-2.843 9.199-15.161 8.799-18.002 18zM19.562 14.9c-0.326-0.273-0.654-0.459-0.984-0.551-0.328-0.092-0.656-0.129-0.988-0.105-0.328 0.025-0.664 0.1-1 0.229-0.336 0.131-0.674 0.273-1.014 0.438-0.537-0.617-1.074-1.227-1.611-1.793 0.242-0.219 0.477-0.33 0.703-0.338 0.227-0.010 0.445 0.014 0.652 0.066 0.211 0.053 0.404 0.098 0.582 0.133 0.18 0.035 0.336-0.004 0.473-0.119 0.145-0.125 0.225-0.287 0.236-0.482 0.010-0.197-0.064-0.389-0.229-0.576-0.211-0.242-0.465-0.389-0.77-0.443-0.301-0.053-0.609-0.049-0.93 0.021-0.316 0.072-0.617 0.191-0.902 0.359s-0.514 0.34-0.684 0.508c-0.065-0.062-0.13-0.123-0.195-0.184-0.072-0.066-0.162-0.102-0.27-0.1-0.109 0-0.199 0.047-0.273 0.133-0.072 0.084-0.105 0.182-0.092 0.285 0.010 0.107 0.053 0.189 0.127 0.252 0.065 0.055 0.13 0.109 0.195 0.166-0.256 0.309-0.467 0.65-0.633 1.010-0.168 0.361-0.268 0.719-0.305 1.066-0.039 0.35-0.002 0.67 0.105 0.967 0.107 0.299 0.305 0.553 0.594 0.793 0.471 0.391 1.025 0.557 1.668 0.52 0.641-0.039 1.332-0.23 2.075-0.629 0.59 0.682 1.182 1.359 1.773 1.988-0.25 0.211-0.469 0.332-0.662 0.371-0.193 0.041-0.365 0.037-0.521-0.010-0.156-0.049-0.301-0.119-0.434-0.209-0.133-0.092-0.264-0.17-0.395-0.234-0.129-0.064-0.262-0.1-0.398-0.102s-0.281 0.064-0.441 0.201c-0.164 0.143-0.246 0.309-0.246 0.496s0.086 0.375 0.254 0.566c0.17 0.191 0.391 0.352 0.658 0.479s0.569 0.207 0.901 0.229c0.332 0.023 0.682-0.027 1.051-0.164 0.371-0.135 0.738-0.379 1.1-0.742 0.174 0.17 0.35 0.332 0.525 0.488 0.074 0.064 0.164 0.096 0.273 0.088 0.105-0.004 0.197-0.053 0.27-0.141 0.074-0.090 0.105-0.189 0.094-0.293-0.010-0.105-0.053-0.186-0.125-0.244-0.176-0.141-0.352-0.289-0.527-0.445 0.299-0.367 0.539-0.754 0.717-1.137 0.178-0.385 0.283-0.756 0.318-1.1 0.035-0.346-0.006-0.658-0.119-0.941-0.112-0.287-0.311-0.533-0.596-0.77zM13.971 15.578c-0.283 0.012-0.53-0.082-0.746-0.291-0.092-0.088-0.156-0.195-0.195-0.322-0.041-0.127-0.055-0.266-0.039-0.418 0.014-0.15 0.059-0.307 0.137-0.465 0.074-0.158 0.184-0.316 0.324-0.469 0.507 0.504 1.013 1.057 1.52 1.629-0.384 0.211-0.718 0.324-1.001 0.336zM18.688 17.58c-0.090 0.166-0.193 0.314-0.314 0.443-0.561-0.566-1.121-1.188-1.68-1.826 0.143-0.064 0.293-0.131 0.455-0.199s0.324-0.113 0.486-0.141c0.166-0.025 0.33-0.018 0.494 0.021 0.162 0.041 0.316 0.129 0.459 0.268 0.141 0.141 0.23 0.287 0.266 0.445 0.039 0.16 0.041 0.322 0.014 0.488-0.029 0.167-0.088 0.333-0.18 0.501zM14.717 22.18c0.197-0.159 0.487-0.151 0.668 0.033 0.196 0.195 0.196 0.514 0 0.709-0.016 0.016-0.033 0.027-0.051 0.041l0.002 0.002c-0.633 0.481-1.153 0.914-1.714 1.475-0.507 0.506-0.965 1.039-1.361 1.58l-0.639 0.875c-0.020 0.036-0.044 0.069-0.074 0.1-0.196 0.195-0.515 0.195-0.71 0-0.17-0.17-0.191-0.432-0.066-0.627l-0.002-0.002 0.684-0.934c0.427-0.584 0.918-1.156 1.461-1.699 0.565-0.567 1.175-1.073 1.8-1.553h0.002zM18.378 7.715c0.506-0.506 0.963-1.037 1.36-1.581l0.664-0.91c0.024-0.043 0.051-0.086 0.088-0.123 0.197-0.197 0.516-0.197 0.713 0 0.187 0.188 0.195 0.485 0.025 0.684l0.002 0.002-0.684 0.938c-0.428 0.584-0.918 1.154-1.461 1.697-0.565 0.565-1.174 1.073-1.799 1.553l-0.004-0.002c-0.199 0.183-0.508 0.179-0.699-0.014-0.197-0.197-0.197-0.518 0-0.715 0.035-0.037 0.076-0.063 0.117-0.086 0.588-0.449 1.155-0.92 1.678-1.443z"></path>
        </symbol>
     <symbol id="icon-agriculture" viewBox="0 0 32 32">
<path d="M17.49 8.854c1.366-1.561 8.668-3.52 8.668-3.52s-1.241 7.811-2.334 9.060c-0.773 0.884-3.15 0.403-4.475 0.047-0.582 0.921-1.073 1.941-1.331 3.005-0.089 0.367-0.482 0.549-0.878 0.407s-0.646-0.555-0.557-0.922c0.297-1.229 0.857-2.379 1.501-3.393-0.587-1.136-1.613-3.519-0.595-4.684zM9.259 18.667h-3.259v7.333h3.259v-1.271c0.527-0.018 1.076-0.032 1.31-0.023 1.118 0.044 1.952 0.304 2.796 0.568 0.787 0.246 1.583 0.494 2.623 0.571 0.262 0.019 0.516 0.045 0.763 0.069h0c0.891 0.088 1.681 0.166 2.334-0.069 0.834-0.3 5.598-2.577 6.193-3.176s0.298-2.217-1.548-1.918c-0.911 0.148-1.967 0.573-2.924 0.958-0.983 0.396-1.863 0.75-2.376 0.72-1.012-0.060-3.692-0.539-3.692-0.539l3.077 0.037c0 0 0.435 0.023 1.032-0.396s1.131-1.618 0.238-1.618c-0.893 0-1.846-0.3-1.846-0.3l-3.811-0.839c0 0-1.31-0.24-1.846 0-0.34 0.152-1.511 0.57-2.322 0.854v-0.961zM8.46 8.325c0 0 5.42 1.469 6.434 2.64 0.705 0.814 0.091 2.422-0.348 3.327 0.529 0.871 0.992 1.821 1.293 2.81 0.107 0.354-0.090 0.729-0.44 0.838s-0.721-0.090-0.828-0.443c-0.245-0.807-0.62-1.597-1.058-2.341-0.984 0.267-2.746 0.627-3.319-0.036-0.811-0.937-1.732-6.795-1.732-6.795zM19.029 13.315c-0.302-0.21-0.376-0.626-0.166-0.928 1.196-1.717 2.147-2.83 2.808-3.519 0.331-0.345 0.589-0.584 0.769-0.74 0.090-0.078 0.161-0.136 0.212-0.175 0.025-0.020 0.046-0.035 0.061-0.046l0.019-0.014 0.007-0.005 0.003-0.002 0.001-0.001 0-0c0-0 0-0 0.381 0.541l-0.381-0.542c0.301-0.212 0.717-0.139 0.929 0.162s0.139 0.714-0.159 0.927l-0.005 0.003c-0.006 0.004-0.017 0.013-0.033 0.026-0.033 0.026-0.087 0.069-0.16 0.133-0.148 0.128-0.376 0.339-0.68 0.656-0.607 0.634-1.515 1.691-2.676 3.358-0.21 0.302-0.626 0.376-0.928 0.166zM13.81 13.386c0.209 0.303 0.135 0.721-0.166 0.933s-0.714 0.137-0.923-0.166c-0.62-0.899-1.1-1.464-1.416-1.797-0.158-0.167-0.275-0.275-0.347-0.339-0.036-0.032-0.061-0.052-0.075-0.063-0.006-0.005-0.010-0.008-0.012-0.009-0.295-0.214-0.365-0.629-0.155-0.93 0.211-0.303 0.625-0.376 0.924-0.164l-0.38 0.546c0.38-0.546 0.38-0.546 0.381-0.546l0 0 0.001 0.001 0.002 0.002 0.005 0.004 0.013 0.010c0.010 0.008 0.023 0.018 0.039 0.030 0.031 0.025 0.074 0.059 0.126 0.105 0.105 0.092 0.251 0.229 0.436 0.424 0.369 0.389 0.893 1.009 1.547 1.958z"></path>
</symbol>
        <symbol id="icon-truck" viewBox="0 0 32 32">
            <path d="M24.832 11.445c-0.186-0.278-0.498-0.445-0.832-0.445h-1c-0.553 0-1 0.447-1 1v6c0 0.553 0.447 1 1 1h4c0.553 0 1-0.447 1-1v-1.5c0-0.197-0.059-0.391-0.168-0.555l-3-4.5zM27 18h-4v-6h1l3 4.5v1.5zM31.496 15.336l-4-6c-0.558-0.837-1.492-1.336-2.496-1.336h-4v-2c0-1.654-1.346-3-3-3h-15c-1.654 0-3 1.346-3 3v11c0 1.654 1.346 3 3 3v0 3c0 1.654 1.346 3 3 3h1.142c0.447 1.721 2 3 3.859 3 1.857 0 3.41-1.279 3.857-3h5.282c0.447 1.721 2 3 3.859 3 1.857 0 3.41-1.279 3.857-3h1.144c1.654 0 3-1.346 3-3v-6c0-0.594-0.174-1.17-0.504-1.664zM3 18c-0.552 0-1-0.447-1-1v-11c0-0.553 0.448-1 1-1h15c0.553 0 1 0.447 1 1v11c0 0.553-0.447 1-1 1h-15zM11.001 27c-1.105 0-2-0.896-2-2s0.895-2 2-2c1.104 0 2 0.896 2 2s-0.897 2-2 2zM24 27c-1.105 0-2-0.896-2-2s0.895-2 2-2c1.104 0 2 0.896 2 2s-0.896 2-2 2zM30 23c0 0.553-0.447 1-1 1h-1.143c-0.447-1.721-2-3-3.857-3-1.859 0-3.412 1.279-3.859 3h-5.282c-0.447-1.721-2-3-3.857-3-1.859 0-3.412 1.279-3.859 3h-1.143c-0.552 0-1-0.447-1-1v-3h13c1.654 0 3-1.346 3-3v-7h4c0.334 0 0.646 0.167 0.832 0.445l4 6c0.109 0.164 0.168 0.358 0.168 0.555v6z"></path>
        </symbol>
    </defs>
</svg>