<svg width="137" height="12" viewBox="0 0 137 12" fill="none" xmlns="http://www.w3.org/2000/svg">
<path d="M3.25391 5.91406C3.25391 5.3763 3.38379 4.88867 3.64355 4.45117C3.90332 4.00911 4.25195 3.6582 4.68945 3.39844C5.13151 3.13411 5.61914 3.00423 6.15234 3.00879C6.62174 3.00423 7.05241 3.10449 7.44434 3.30957C7.84082 3.51009 8.16667 3.78353 8.42188 4.12988C8.68164 4.47624 8.84115 4.86816 8.90039 5.30566H7.60156C7.54232 4.99577 7.3737 4.74284 7.0957 4.54688C6.81771 4.34635 6.50326 4.24609 6.15234 4.24609C5.85156 4.24609 5.57357 4.32129 5.31836 4.47168C5.06771 4.61751 4.86719 4.81803 4.7168 5.07324C4.56641 5.32389 4.48893 5.60417 4.48438 5.91406C4.48893 6.21484 4.56641 6.49284 4.7168 6.74805C4.86719 6.9987 5.06771 7.19922 5.31836 7.34961C5.57357 7.49544 5.85156 7.56836 6.15234 7.56836C6.50326 7.57292 6.80176 7.47721 7.04785 7.28125C7.2985 7.08073 7.45573 6.82552 7.51953 6.51562H8.81152C8.75684 6.95312 8.60645 7.34505 8.36035 7.69141C8.11426 8.0332 7.80208 8.30664 7.42383 8.51172C7.04557 8.71224 6.62174 8.8125 6.15234 8.8125C5.61914 8.8125 5.13151 8.68262 4.68945 8.42285C4.25195 8.16309 3.90332 7.81445 3.64355 7.37695C3.38379 6.9349 3.25391 6.44727 3.25391 5.91406ZM6.10449 11.1641C5.38444 11.1641 4.7054 11.0273 4.06738 10.7539C3.43392 10.4805 2.87565 10.1045 2.39258 9.62598C1.90951 9.1429 1.53125 8.58464 1.25781 7.95117C0.988932 7.31771 0.854492 6.63867 0.854492 5.91406C0.859049 5.18945 0.998047 4.51042 1.27148 3.87695C1.54492 3.23893 1.9209 2.68066 2.39941 2.20215C2.88249 1.71908 3.44076 1.3431 4.07422 1.07422C4.70768 0.800781 5.38444 0.664062 6.10449 0.664062C6.83366 0.664062 7.51497 0.800781 8.14844 1.07422C8.7819 1.3431 9.33789 1.71908 9.81641 2.20215C10.2995 2.68066 10.6755 3.23893 10.9443 3.87695C11.2178 4.51042 11.3545 5.18945 11.3545 5.91406C11.359 6.63867 11.2246 7.31771 10.9512 7.95117C10.6823 8.58464 10.3063 9.1429 9.82324 9.62598C9.34473 10.1045 8.78646 10.4805 8.14844 10.7539C7.51497 11.0273 6.83366 11.1641 6.10449 11.1641ZM6.10449 9.83789C6.65137 9.83789 7.16178 9.73535 7.63574 9.53027C8.11426 9.3252 8.53353 9.04492 8.89355 8.68945C9.25358 8.32943 9.53385 7.91243 9.73438 7.43848C9.9349 6.96452 10.0352 6.45638 10.0352 5.91406C10.0352 5.36719 9.93262 4.85677 9.72754 4.38281C9.52246 3.90885 9.23991 3.49186 8.87988 3.13184C8.52441 2.77181 8.1097 2.48926 7.63574 2.28418C7.16178 2.0791 6.65137 1.97656 6.10449 1.97656C5.56673 1.97656 5.06087 2.0791 4.58691 2.28418C4.11296 2.48926 3.69596 2.77181 3.33594 3.13184C2.97591 3.49186 2.69336 3.91113 2.48828 4.38965C2.2832 4.86361 2.18066 5.37174 2.18066 5.91406C2.17611 6.45182 2.27409 6.95768 2.47461 7.43164C2.67969 7.9056 2.96224 8.32259 3.32227 8.68262C3.68685 9.04264 4.10612 9.3252 4.58008 9.53027C5.05404 9.73535 5.56217 9.83789 6.10449 9.83789ZM17.3496 11.1367C16.429 11.1367 15.6201 10.9248 14.9229 10.501C14.2301 10.0771 13.6878 9.47559 13.2959 8.69629C12.9085 7.91243 12.7148 6.98503 12.7148 5.91406C12.7148 4.82943 12.9108 3.89746 13.3027 3.11816C13.6992 2.33431 14.2415 1.73275 14.9297 1.31348C15.6178 0.889648 16.4017 0.677734 17.2812 0.677734C17.8281 0.677734 18.3385 0.759766 18.8125 0.923828C19.291 1.08333 19.7148 1.31348 20.084 1.61426C20.4577 1.91504 20.7653 2.27051 21.0068 2.68066C21.2529 3.08626 21.4193 3.53743 21.5059 4.03418H19.9336C19.8379 3.72884 19.7103 3.45768 19.5508 3.2207C19.3913 2.97917 19.1999 2.77409 18.9766 2.60547C18.7533 2.43229 18.5003 2.30241 18.2178 2.21582C17.9398 2.12467 17.6299 2.0791 17.2881 2.0791C16.7139 2.0791 16.1966 2.22721 15.7363 2.52344C15.276 2.8151 14.9115 3.24577 14.6426 3.81543C14.3737 4.38509 14.2393 5.08236 14.2393 5.90723C14.2393 6.7321 14.3737 7.42936 14.6426 7.99902C14.9115 8.56868 15.2806 9.00163 15.75 9.29785C16.2194 9.58952 16.7526 9.73535 17.3496 9.73535C17.901 9.73535 18.3818 9.6237 18.792 9.40039C19.2021 9.17253 19.5212 8.85352 19.749 8.44336C19.9769 8.0332 20.0908 7.54785 20.0908 6.9873L20.4941 7.0625H17.582V5.79102H21.5879V6.95312C21.5879 7.8099 21.4056 8.55046 21.041 9.1748C20.681 9.79915 20.1797 10.2822 19.5371 10.624C18.8991 10.9658 18.1699 11.1367 17.3496 11.1367ZM22.832 11V3.35742H24.2607V4.58105H24.3428C24.484 4.1709 24.7301 3.84733 25.0811 3.61035C25.4365 3.36882 25.8376 3.24805 26.2842 3.24805C26.3753 3.24805 26.4824 3.2526 26.6055 3.26172C26.7331 3.26628 26.8356 3.27311 26.9131 3.28223V4.7041C26.8538 4.68587 26.7467 4.66764 26.5918 4.64941C26.4414 4.63118 26.2887 4.62207 26.1338 4.62207C25.7829 4.62207 25.4684 4.69727 25.1904 4.84766C24.917 4.99349 24.7005 5.19629 24.541 5.45605C24.3861 5.71126 24.3086 6.00749 24.3086 6.34473V11H22.832ZM30.6455 11.1572C29.8981 11.1572 29.251 10.9954 28.7041 10.6719C28.1572 10.3483 27.7357 9.89258 27.4395 9.30469C27.1478 8.71224 27.002 8.02181 27.002 7.2334C27.002 6.44954 27.1455 5.75911 27.4326 5.16211C27.7243 4.5651 28.1322 4.10026 28.6562 3.76758C29.1849 3.43034 29.8047 3.26172 30.5156 3.26172C30.9486 3.26172 31.3678 3.33236 31.7734 3.47363C32.179 3.61491 32.5436 3.83822 32.8672 4.14355C33.1908 4.44889 33.446 4.84538 33.6328 5.33301C33.8242 5.82064 33.9199 6.40853 33.9199 7.09668V7.62988H27.8428V6.51562H33.1543L32.4639 6.88477C32.4639 6.41536 32.391 6.00065 32.2451 5.64062C32.0993 5.2806 31.8805 5.00033 31.5889 4.7998C31.3018 4.59473 30.944 4.49219 30.5156 4.49219C30.0872 4.49219 29.7204 4.59473 29.415 4.7998C29.1143 5.00488 28.8841 5.27604 28.7246 5.61328C28.5651 5.95052 28.4854 6.31966 28.4854 6.7207V7.47949C28.4854 8.00358 28.5765 8.44792 28.7588 8.8125C28.9411 9.17708 29.194 9.45508 29.5176 9.64648C29.8457 9.83789 30.2262 9.93359 30.6592 9.93359C30.9417 9.93359 31.1969 9.89258 31.4248 9.81055C31.6572 9.72852 31.8577 9.60547 32.0264 9.44141C32.195 9.27734 32.3226 9.07454 32.4092 8.83301L33.8174 9.09961C33.7035 9.50977 33.5029 9.86979 33.2158 10.1797C32.9287 10.4896 32.5664 10.7311 32.1289 10.9043C31.696 11.0729 31.2015 11.1572 30.6455 11.1572ZM38.2471 11.1572C37.4997 11.1572 36.8525 10.9954 36.3057 10.6719C35.7588 10.3483 35.3372 9.89258 35.041 9.30469C34.7493 8.71224 34.6035 8.02181 34.6035 7.2334C34.6035 6.44954 34.7471 5.75911 35.0342 5.16211C35.3258 4.5651 35.7337 4.10026 36.2578 3.76758C36.7865 3.43034 37.4062 3.26172 38.1172 3.26172C38.5501 3.26172 38.9694 3.33236 39.375 3.47363C39.7806 3.61491 40.1452 3.83822 40.4688 4.14355C40.7923 4.44889 41.0475 4.84538 41.2344 5.33301C41.4258 5.82064 41.5215 6.40853 41.5215 7.09668V7.62988H35.4443V6.51562H40.7559L40.0654 6.88477C40.0654 6.41536 39.9925 6.00065 39.8467 5.64062C39.7008 5.2806 39.4821 5.00033 39.1904 4.7998C38.9033 4.59473 38.5456 4.49219 38.1172 4.49219C37.6888 4.49219 37.3219 4.59473 37.0166 4.7998C36.7158 5.00488 36.4857 5.27604 36.3262 5.61328C36.1667 5.95052 36.0869 6.31966 36.0869 6.7207V7.47949C36.0869 8.00358 36.1781 8.44792 36.3604 8.8125C36.5426 9.17708 36.7956 9.45508 37.1191 9.64648C37.4473 9.83789 37.8278 9.93359 38.2607 9.93359C38.5433 9.93359 38.7985 9.89258 39.0264 9.81055C39.2588 9.72852 39.4593 9.60547 39.6279 9.44141C39.7965 9.27734 39.9242 9.07454 40.0107 8.83301L41.4189 9.09961C41.305 9.50977 41.1045 9.86979 40.8174 10.1797C40.5303 10.4896 40.168 10.7311 39.7305 10.9043C39.2975 11.0729 38.8031 11.1572 38.2471 11.1572ZM44.0371 6.46777V11H42.5605V3.35742H43.9961V4.61523H44.0986C44.2718 4.20052 44.543 3.8724 44.9121 3.63086C45.2812 3.38477 45.7552 3.26172 46.334 3.26172C46.8535 3.26172 47.307 3.37109 47.6943 3.58984C48.0863 3.80404 48.3893 4.12533 48.6035 4.55371C48.8223 4.9821 48.9316 5.51302 48.9316 6.14648V11H47.4551V6.32422C47.4551 5.77279 47.3092 5.33984 47.0176 5.02539C46.7259 4.70638 46.3294 4.54688 45.8281 4.54688C45.4863 4.54688 45.1787 4.62435 44.9053 4.7793C44.6364 4.92969 44.4245 5.14616 44.2695 5.42871C44.1146 5.71126 44.0371 6.05762 44.0371 6.46777ZM53.5801 11V0.814453H55.1182V5.24414H60.1904V0.814453H61.7285V11H60.1904V6.56348H55.1182V11H53.5801ZM65.4746 11.1641C64.9915 11.1641 64.554 11.0752 64.1621 10.8975C63.7702 10.7152 63.4603 10.4508 63.2324 10.1045C63.0046 9.75814 62.8906 9.33659 62.8906 8.83984C62.8906 8.4069 62.9727 8.05371 63.1367 7.78027C63.3053 7.50228 63.5309 7.28125 63.8135 7.11719C64.096 6.95312 64.4105 6.83008 64.7568 6.74805C65.1032 6.66602 65.4587 6.60221 65.8232 6.55664C66.2835 6.50651 66.6549 6.46322 66.9375 6.42676C67.2201 6.3903 67.4251 6.33333 67.5527 6.25586C67.6849 6.17383 67.751 6.04395 67.751 5.86621V5.83203C67.751 5.39909 67.6279 5.06413 67.3818 4.82715C67.1403 4.59017 66.7803 4.47168 66.3018 4.47168C65.805 4.47168 65.4108 4.58105 65.1191 4.7998C64.832 5.014 64.6338 5.25781 64.5244 5.53125L63.123 5.20996C63.2917 4.74512 63.5355 4.37142 63.8545 4.08887C64.1781 3.80176 64.5472 3.59212 64.9619 3.45996C65.3812 3.3278 65.8187 3.26172 66.2744 3.26172C66.5798 3.26172 66.9033 3.29818 67.2451 3.37109C67.5869 3.43945 67.9082 3.56934 68.209 3.76074C68.5143 3.94759 68.7627 4.21647 68.9541 4.56738C69.1455 4.91829 69.2412 5.37174 69.2412 5.92773V11H67.7852V9.9541H67.7305C67.6393 10.141 67.4958 10.3278 67.2998 10.5146C67.1084 10.7015 66.8623 10.8564 66.5615 10.9795C66.2607 11.1025 65.8984 11.1641 65.4746 11.1641ZM65.7959 9.97461C66.2106 9.97461 66.5638 9.89486 66.8555 9.73535C67.1471 9.57129 67.3704 9.3571 67.5254 9.09277C67.6803 8.82845 67.7578 8.54818 67.7578 8.25195V7.26074C67.7031 7.31087 67.6006 7.35872 67.4502 7.4043C67.2998 7.44987 67.1289 7.48861 66.9375 7.52051C66.7461 7.55241 66.5592 7.58203 66.377 7.60938C66.1947 7.63216 66.042 7.65039 65.9189 7.66406C65.6318 7.70508 65.3698 7.76888 65.1328 7.85547C64.8958 7.9375 64.7044 8.06055 64.5586 8.22461C64.4173 8.38411 64.3467 8.59603 64.3467 8.86035C64.3467 9.22949 64.4834 9.50749 64.7568 9.69434C65.0303 9.88118 65.3766 9.97461 65.7959 9.97461ZM70.6699 11V3.35742H72.0986V4.58105H72.1807C72.3219 4.1709 72.568 3.84733 72.9189 3.61035C73.2744 3.36882 73.6755 3.24805 74.1221 3.24805C74.2132 3.24805 74.3203 3.2526 74.4434 3.26172C74.571 3.26628 74.6735 3.27311 74.751 3.28223V4.7041C74.6917 4.68587 74.5846 4.66764 74.4297 4.64941C74.2793 4.63118 74.1266 4.62207 73.9717 4.62207C73.6208 4.62207 73.3063 4.69727 73.0283 4.84766C72.7549 4.99349 72.5384 5.19629 72.3789 5.45605C72.224 5.71126 72.1465 6.00749 72.1465 6.34473V11H70.6699ZM82.2227 3.35742L79.4609 11H77.8613L75.0928 3.35742H76.6855L78.627 9.25H78.709L80.6367 3.35742H82.2227ZM86.0713 11.1572C85.3239 11.1572 84.6768 10.9954 84.1299 10.6719C83.583 10.3483 83.1615 9.89258 82.8652 9.30469C82.5736 8.71224 82.4277 8.02181 82.4277 7.2334C82.4277 6.44954 82.5713 5.75911 82.8584 5.16211C83.1501 4.5651 83.5579 4.10026 84.082 3.76758C84.6107 3.43034 85.2305 3.26172 85.9414 3.26172C86.3743 3.26172 86.7936 3.33236 87.1992 3.47363C87.6048 3.61491 87.9694 3.83822 88.293 4.14355C88.6165 4.44889 88.8717 4.84538 89.0586 5.33301C89.25 5.82064 89.3457 6.40853 89.3457 7.09668V7.62988H83.2686V6.51562H88.5801L87.8896 6.88477C87.8896 6.41536 87.8167 6.00065 87.6709 5.64062C87.5251 5.2806 87.3063 5.00033 87.0146 4.7998C86.7275 4.59473 86.3698 4.49219 85.9414 4.49219C85.513 4.49219 85.1462 4.59473 84.8408 4.7998C84.54 5.00488 84.3099 5.27604 84.1504 5.61328C83.9909 5.95052 83.9111 6.31966 83.9111 6.7207V7.47949C83.9111 8.00358 84.0023 8.44792 84.1846 8.8125C84.3669 9.17708 84.6198 9.45508 84.9434 9.64648C85.2715 9.83789 85.652 9.93359 86.085 9.93359C86.3675 9.93359 86.6227 9.89258 86.8506 9.81055C87.083 9.72852 87.2835 9.60547 87.4521 9.44141C87.6208 9.27734 87.7484 9.07454 87.835 8.83301L89.2432 9.09961C89.1292 9.50977 88.9287 9.86979 88.6416 10.1797C88.3545 10.4896 87.9922 10.7311 87.5547 10.9043C87.1217 11.0729 86.6273 11.1572 86.0713 11.1572ZM96.0996 5.23047L94.7529 5.46289C94.6663 5.20768 94.5046 4.97298 94.2676 4.75879C94.0352 4.5446 93.6865 4.4375 93.2217 4.4375C92.8024 4.4375 92.4515 4.5332 92.1689 4.72461C91.891 4.91146 91.752 5.15072 91.752 5.44238C91.752 5.69759 91.8454 5.90495 92.0322 6.06445C92.2236 6.22396 92.5267 6.35156 92.9414 6.44727L94.165 6.7207C94.8623 6.88021 95.3841 7.13086 95.7305 7.47266C96.0768 7.81445 96.25 8.25195 96.25 8.78516C96.25 9.24544 96.1178 9.6556 95.8535 10.0156C95.5892 10.3711 95.2223 10.6514 94.7529 10.8564C94.2835 11.057 93.7412 11.1572 93.126 11.1572C92.2692 11.1572 91.5719 10.9727 91.0342 10.6035C90.4964 10.2344 90.166 9.71484 90.043 9.04492L91.4717 8.82617C91.5628 9.19987 91.7474 9.48242 92.0254 9.67383C92.3079 9.86523 92.6725 9.96094 93.1191 9.96094C93.6022 9.96094 93.9896 9.8584 94.2812 9.65332C94.5775 9.44824 94.7256 9.19987 94.7256 8.9082C94.7256 8.42513 94.3656 8.09928 93.6455 7.93066L92.3535 7.64355C91.638 7.47949 91.1094 7.22201 90.7676 6.87109C90.4303 6.51562 90.2617 6.06901 90.2617 5.53125C90.2617 5.08008 90.387 4.68359 90.6377 4.3418C90.8929 4 91.2415 3.73568 91.6836 3.54883C92.1302 3.35742 92.6383 3.26172 93.208 3.26172C94.0374 3.26172 94.6868 3.44173 95.1562 3.80176C95.6302 4.16178 95.9447 4.63802 96.0996 5.23047ZM100.844 3.35742V4.55371H96.6738V3.35742H100.844ZM97.7881 1.53906H99.2715V8.75781C99.2715 9.10872 99.3444 9.36621 99.4902 9.53027C99.6361 9.68978 99.8708 9.76953 100.194 9.76953C100.272 9.76953 100.354 9.76497 100.44 9.75586C100.532 9.74674 100.623 9.73307 100.714 9.71484L100.994 10.9453C100.844 10.9954 100.68 11.0342 100.502 11.0615C100.324 11.0889 100.146 11.1025 99.9688 11.1025C99.3079 11.1025 98.7793 10.918 98.3828 10.5488C97.9863 10.1751 97.7881 9.67839 97.7881 9.05859V1.53906ZM105 11V9.89258L108.445 6.31055C108.81 5.92773 109.111 5.59049 109.348 5.29883C109.589 5.0026 109.769 4.72233 109.888 4.45801C110.011 4.19368 110.072 3.91341 110.072 3.61719C110.072 3.27539 109.993 2.98145 109.833 2.73535C109.674 2.48926 109.457 2.30013 109.184 2.16797C108.91 2.03581 108.6 1.96973 108.254 1.96973C107.889 1.96973 107.573 2.04492 107.304 2.19531C107.035 2.34115 106.825 2.55078 106.675 2.82422C106.529 3.0931 106.456 3.40983 106.456 3.77441H104.993C104.993 3.15462 105.134 2.6123 105.417 2.14746C105.704 1.68262 106.096 1.32259 106.593 1.06738C107.094 0.807617 107.659 0.677734 108.288 0.677734C108.931 0.677734 109.496 0.805339 109.983 1.06055C110.471 1.31576 110.852 1.66211 111.125 2.09961C111.398 2.53255 111.535 3.02246 111.535 3.56934C111.535 3.94759 111.465 4.31673 111.323 4.67676C111.187 5.03678 110.943 5.4401 110.592 5.88672C110.245 6.32878 109.762 6.86198 109.143 7.48633L107.119 9.60547V9.6875H111.699V11H105ZM116.539 11.1367C115.755 11.1367 115.083 10.9316 114.522 10.5215C113.966 10.1113 113.54 9.51888 113.244 8.74414C112.952 7.96484 112.807 7.02148 112.807 5.91406C112.807 4.8112 112.955 3.87012 113.251 3.09082C113.547 2.30697 113.973 1.70996 114.529 1.2998C115.09 0.885091 115.76 0.677734 116.539 0.677734C117.323 0.677734 117.993 0.885091 118.549 1.2998C119.109 1.70996 119.535 2.30697 119.827 3.09082C120.123 3.87012 120.271 4.8112 120.271 5.91406C120.271 7.02148 120.126 7.96484 119.834 8.74414C119.542 9.51888 119.118 10.1113 118.562 10.5215C118.007 10.9316 117.332 11.1367 116.539 11.1367ZM116.539 9.82422C117.018 9.82422 117.421 9.67155 117.749 9.36621C118.077 9.06087 118.328 8.61654 118.501 8.0332C118.674 7.44531 118.761 6.73893 118.761 5.91406C118.761 5.08464 118.674 4.37826 118.501 3.79492C118.328 3.20703 118.077 2.76042 117.749 2.45508C117.421 2.14518 117.018 1.99023 116.539 1.99023C115.833 1.99023 115.286 2.33431 114.898 3.02246C114.516 3.70605 114.324 4.66992 114.324 5.91406C114.324 6.73893 114.411 7.44531 114.584 8.0332C114.757 8.61654 115.008 9.06087 115.336 9.36621C115.669 9.67155 116.07 9.82422 116.539 9.82422ZM121.461 11V9.89258L124.906 6.31055C125.271 5.92773 125.572 5.59049 125.809 5.29883C126.05 5.0026 126.23 4.72233 126.349 4.45801C126.472 4.19368 126.533 3.91341 126.533 3.61719C126.533 3.27539 126.453 2.98145 126.294 2.73535C126.134 2.48926 125.918 2.30013 125.645 2.16797C125.371 2.03581 125.061 1.96973 124.715 1.96973C124.35 1.96973 124.034 2.04492 123.765 2.19531C123.496 2.34115 123.286 2.55078 123.136 2.82422C122.99 3.0931 122.917 3.40983 122.917 3.77441H121.454C121.454 3.15462 121.595 2.6123 121.878 2.14746C122.165 1.68262 122.557 1.32259 123.054 1.06738C123.555 0.807617 124.12 0.677734 124.749 0.677734C125.392 0.677734 125.957 0.805339 126.444 1.06055C126.932 1.31576 127.312 1.66211 127.586 2.09961C127.859 2.53255 127.996 3.02246 127.996 3.56934C127.996 3.94759 127.925 4.31673 127.784 4.67676C127.647 5.03678 127.404 5.4401 127.053 5.88672C126.706 6.32878 126.223 6.86198 125.604 7.48633L123.58 9.60547V9.6875H128.16V11H121.461ZM133.007 11.1367C132.319 11.1367 131.708 11.0205 131.175 10.7881C130.642 10.5511 130.22 10.223 129.91 9.80371C129.6 9.38444 129.436 8.89909 129.418 8.34766H130.963C130.986 8.64844 131.088 8.9082 131.271 9.12695C131.453 9.3457 131.692 9.5166 131.988 9.63965C132.289 9.75814 132.624 9.81738 132.993 9.81738C133.394 9.81738 133.75 9.74674 134.06 9.60547C134.369 9.46419 134.611 9.27051 134.784 9.02441C134.962 8.77376 135.051 8.48438 135.051 8.15625C135.051 7.81445 134.964 7.51367 134.791 7.25391C134.618 6.98958 134.365 6.78451 134.032 6.63867C133.7 6.49284 133.299 6.41992 132.829 6.41992H131.961V5.16211H132.829C133.203 5.16211 133.533 5.09375 133.82 4.95703C134.107 4.82031 134.331 4.63118 134.49 4.38965C134.654 4.14811 134.736 3.86328 134.736 3.53516C134.736 3.2207 134.666 2.94727 134.524 2.71484C134.383 2.47786 134.185 2.29557 133.93 2.16797C133.674 2.03581 133.374 1.96973 133.027 1.96973C132.695 1.96973 132.385 2.02897 132.098 2.14746C131.811 2.26595 131.576 2.43685 131.394 2.66016C131.216 2.87891 131.122 3.14551 131.113 3.45996H129.63C129.644 2.90853 129.803 2.42546 130.108 2.01074C130.418 1.59147 130.828 1.26562 131.339 1.0332C131.854 0.796224 132.424 0.677734 133.048 0.677734C133.7 0.677734 134.262 0.805339 134.736 1.06055C135.215 1.3112 135.584 1.64844 135.844 2.07227C136.104 2.49154 136.233 2.94954 136.233 3.44629C136.233 4.02507 136.074 4.5127 135.755 4.90918C135.436 5.30111 135.01 5.56771 134.477 5.70898V5.78418C135.151 5.889 135.673 6.15788 136.042 6.59082C136.416 7.02376 136.603 7.56152 136.603 8.2041C136.603 8.76465 136.445 9.26595 136.131 9.70801C135.821 10.1501 135.395 10.4987 134.853 10.7539C134.315 11.0091 133.7 11.1367 133.007 11.1367Z" fill="#D4BFC4"/>
</svg>
